solid OpenSCAD_Model
  facet normal 1 -0 0
    outer loop
      vertex 10 10 25
      vertex 10 40 0
      vertex 10 40 25
    endloop
  endfacet
  facet normal 1 0 0
    outer loop
      vertex 10 40 0
      vertex 10 10 25
      vertex 10 10 0
    endloop
  endfacet
  facet normal 0 0 -1
    outer loop
      vertex 10 10 25
      vertex 40 40 25
      vertex 40 10 25
    endloop
  endfacet
  facet normal -0 0 -1
    outer loop
      vertex 40 40 25
      vertex 10 10 25
      vertex 10 40 25
    endloop
  endfacet
  facet normal 0 0 -1
    outer loop
      vertex 50 0 0
      vertex 40 10 0
      vertex 50 50 0
    endloop
  endfacet
  facet normal 0 0 -1
    outer loop
      vertex 50 0 0
      vertex 10 10 0
      vertex 40 10 0
    endloop
  endfacet
  facet normal -0 0 -1
    outer loop
      vertex 10 10 0
      vertex 0 0 0
      vertex 10 40 0
    endloop
  endfacet
  facet normal 0 0 -1
    outer loop
      vertex 0 0 0
      vertex 10 10 0
      vertex 50 0 0
    endloop
  endfacet
  facet normal 0 0 -1
    outer loop
      vertex 40 40 0
      vertex 50 50 0
      vertex 40 10 0
    endloop
  endfacet
  facet normal 0 0 -1
    outer loop
      vertex 10 40 0
      vertex 50 50 0
      vertex 40 40 0
    endloop
  endfacet
  facet normal 0 0 -1
    outer loop
      vertex 10 40 0
      vertex 0 50 0
      vertex 50 50 0
    endloop
  endfacet
  facet normal 0 0 -1
    outer loop
      vertex 0 50 0
      vertex 10 40 0
      vertex 0 0 0
    endloop
  endfacet
  facet normal 0 1 -0
    outer loop
      vertex 40 10 0
      vertex 10 10 25
      vertex 40 10 25
    endloop
  endfacet
  facet normal 0 1 0
    outer loop
      vertex 10 10 25
      vertex 40 10 0
      vertex 10 10 0
    endloop
  endfacet
  facet normal 0 -1 0
    outer loop
      vertex 10 40 0
      vertex 40 40 25
      vertex 10 40 25
    endloop
  endfacet
  facet normal 0 -1 -0
    outer loop
      vertex 40 40 25
      vertex 10 40 0
      vertex 40 40 0
    endloop
  endfacet
  facet normal -1 0 0
    outer loop
      vertex 40 10 0
      vertex 40 40 25
      vertex 40 40 0
    endloop
  endfacet
  facet normal -1 -0 0
    outer loop
      vertex 40 40 25
      vertex 40 10 0
      vertex 40 10 25
    endloop
  endfacet
  facet normal -1 0 0
    outer loop
      vertex 0 0 0
      vertex 0 50 100
      vertex 0 50 0
    endloop
  endfacet
  facet normal -1 -0 0
    outer loop
      vertex 0 50 100
      vertex 0 0 0
      vertex 0 0 100
    endloop
  endfacet
  facet normal -0 0 1
    outer loop
      vertex 10 40 50
      vertex 40 10 50
      vertex 40 40 50
    endloop
  endfacet
  facet normal 0 0 1
    outer loop
      vertex 40 10 50
      vertex 10 40 50
      vertex 10 10 50
    endloop
  endfacet
  facet normal 1 -0 0
    outer loop
      vertex 50 0 100
      vertex 50 50 0
      vertex 50 50 100
    endloop
  endfacet
  facet normal 1 0 0
    outer loop
      vertex 50 50 0
      vertex 50 0 100
      vertex 50 0 0
    endloop
  endfacet
  facet normal 0 -1 0
    outer loop
      vertex 0 0 0
      vertex 50 0 100
      vertex 0 0 100
    endloop
  endfacet
  facet normal 0 -1 -0
    outer loop
      vertex 50 0 100
      vertex 0 0 0
      vertex 50 0 0
    endloop
  endfacet
  facet normal 0 1 -0
    outer loop
      vertex 50 50 0
      vertex 0 50 100
      vertex 50 50 100
    endloop
  endfacet
  facet normal 0 1 0
    outer loop
      vertex 0 50 100
      vertex 50 50 0
      vertex 0 50 0
    endloop
  endfacet
  facet normal 1 -0 0
    outer loop
      vertex 10 10 75
      vertex 10 40 50
      vertex 10 40 75
    endloop
  endfacet
  facet normal 1 0 0
    outer loop
      vertex 10 40 50
      vertex 10 10 75
      vertex 10 10 50
    endloop
  endfacet
  facet normal 0 0 -1
    outer loop
      vertex 10 10 75
      vertex 40 40 75
      vertex 40 10 75
    endloop
  endfacet
  facet normal -0 0 -1
    outer loop
      vertex 40 40 75
      vertex 10 10 75
      vertex 10 40 75
    endloop
  endfacet
  facet normal 0 1 -0
    outer loop
      vertex 40 10 50
      vertex 10 10 75
      vertex 40 10 75
    endloop
  endfacet
  facet normal 0 1 0
    outer loop
      vertex 10 10 75
      vertex 40 10 50
      vertex 10 10 50
    endloop
  endfacet
  facet normal 0 -1 0
    outer loop
      vertex 10 40 50
      vertex 40 40 75
      vertex 10 40 75
    endloop
  endfacet
  facet normal 0 -1 -0
    outer loop
      vertex 40 40 75
      vertex 10 40 50
      vertex 40 40 50
    endloop
  endfacet
  facet normal -1 0 0
    outer loop
      vertex 40 10 50
      vertex 40 40 75
      vertex 40 40 50
    endloop
  endfacet
  facet normal -1 -0 0
    outer loop
      vertex 40 40 75
      vertex 40 10 50
      vertex 40 10 75
    endloop
  endfacet
  facet normal -0 0 1
    outer loop
      vertex 0 50 100
      vertex 50 0 100
      vertex 50 50 100
    endloop
  endfacet
  facet normal 0 0 1
    outer loop
      vertex 50 0 100
      vertex 0 50 100
      vertex 0 0 100
    endloop
  endfacet
endsolid OpenSCAD_Model
